<svg width="384" height="318" viewBox="0 0 384 318" fill="none" xmlns="http://www.w3.org/2000/svg">
<path d="M0 164.575C11.07 134.285 31.38 110.615 54.42 88.9747C60 83.7347 66.67 80.0047 74.83 79.1347C75.33 72.1547 75.88 65.2247 76.31 58.2747C77.38 40.9847 78.39 23.6847 79.43 6.39472C79.68 2.26472 81.94 -0.215278 85.21 0.0147222C88.66 0.254722 90.54 3.10472 90.27 7.37472C88.69 32.1247 87.13 56.8847 85.61 81.6447C85.55 82.5547 85.71 83.7647 86.26 84.3847C90.17 88.7447 91.67 94.1147 92.94 99.5947C96.8 116.185 107.78 125.585 123.71 129.725C130.01 131.365 136.28 129.835 142.53 128.475C147.67 127.355 152.94 126.865 158.87 125.985C159.7 120.795 160.72 114.575 161.69 108.335C165.6 83.2547 169.49 58.1647 173.38 33.0747C174.75 24.2247 176.12 15.3647 177.44 6.50472C178.09 2.14472 180.46 -0.365278 183.69 0.0547222C187.25 0.514722 188.79 3.47472 188.08 8.04472C183.71 36.2047 179.38 64.3747 175.04 92.5447C173.01 105.705 170.96 118.865 168.96 132.025C168.82 132.945 168.84 133.995 169.13 134.875C171.18 140.965 173.86 146.895 175.36 153.105C183.58 187.275 201.3 215.055 229.78 235.895C235 239.715 239.99 243.925 244.67 248.385C266.96 269.665 252.71 295.765 231.31 301.985C228.47 302.815 227.37 304.195 226.6 306.815C224.59 313.605 219.33 317.545 213.26 317.185C206.98 316.815 202.66 312.635 200.93 305.585C200.57 304.145 199.36 302.915 198.55 301.585C197.24 302.505 195.64 303.195 194.69 304.395C190.24 310.025 184.49 311.915 178.59 309.415C172.84 306.975 169.97 301.175 170.92 294.315C171.07 293.235 170.37 292.045 170.06 290.905C168.95 291.345 167.53 291.495 166.78 292.285C163.13 296.105 158.97 298.565 153.51 297.635C146.12 296.375 141.51 289.095 143.24 281.635C143.46 280.665 144.01 279.745 144.06 278.775C144.1 277.835 143.99 276.455 143.4 276.035C142.86 275.655 141.47 276.075 140.68 276.535C139.74 277.075 139.07 278.085 138.22 278.805C133.66 282.635 127.79 283.115 122.95 280.105C117.98 277.015 115.55 271.275 117.46 265.545C118.67 261.915 117.9 260.205 114.58 258.245C97.2 248.005 79.99 237.445 62.73 227.005C62.53 226.885 62.27 226.845 61.8 226.685C60.72 227.705 59.59 228.835 58.4 229.885C53.65 234.075 47.6 234.645 42.55 231.395C37.65 228.245 35.6 222.615 37.21 216.695C37.47 215.735 38.03 214.785 38.02 213.845C38.01 213.035 37.55 211.995 36.94 211.515C36.54 211.195 35.35 211.445 34.78 211.835C33.77 212.525 33 213.575 32.05 214.385C27.57 218.235 21.62 218.795 16.78 215.845C11.81 212.825 9.27 206.995 11.18 201.335C12.42 197.645 11.81 195.295 8.94 192.685C4 188.215 2.09 181.915 0.04 175.805V164.575H0ZM97.19 190.405C101.33 201.025 105.34 211.465 109.52 221.845C110.02 223.095 111.21 224.305 112.39 225.025C129.29 235.345 146.23 245.615 163.23 255.765C164.57 256.565 166.51 256.895 168.07 256.695C179.3 255.235 190.52 253.615 201.73 251.975C210.15 250.745 218.55 249.425 227.22 248.105C226.78 247.455 226.64 247.105 226.38 246.885C217.94 239.505 209.52 232.095 201 224.815C200.26 224.185 198.76 224.055 197.71 224.225C193.17 224.965 188.68 226.065 184.14 226.725C180.73 227.225 178.34 225.365 177.84 222.375C177.36 219.475 179.15 217.065 182.52 216.255C185.48 215.545 188.47 214.945 191.55 214.285C189.41 210.358 186.427 208.765 182.6 209.505C179.67 210.085 176.76 210.735 173.84 211.345C170.01 212.145 167.1 210.745 166.32 207.735C165.46 204.425 167.35 201.725 171.35 200.805C174.59 200.055 177.87 199.465 181.58 198.705C180.31 196.245 179.19 194.085 177.98 191.765C173.17 192.705 168.57 193.725 163.93 194.475C159.96 195.115 157.43 193.415 156.93 190.165C156.46 187.105 158.25 184.885 162 184.015C165.68 183.165 169.38 182.375 172.6 181.665C169.23 169.675 166.02 158.065 162.7 146.485C160.33 138.235 156.71 136.425 148.16 138.075C141.11 139.435 133.85 141.415 126.84 140.925C106.03 139.475 88.63 124.305 83.14 104.195C82.52 101.915 81.91 99.6347 81.2 97.3847C78.79 89.7047 74.87 88.0147 68.08 92.2847C55.53 100.165 46.36 111.515 37.25 122.675C45.85 128.735 54.18 134.605 62.6 140.545C81.04 129.795 97.38 131.995 107.44 146.645C115.51 158.395 115.75 178.445 97.22 190.415L97.19 190.405ZM11.79 176.825C13.78 182.435 16.59 186.165 20.67 188.815C24.06 191.005 24.86 193.795 23.48 197.475C22.74 199.445 22.07 201.485 21.69 203.545C21.52 204.465 21.85 206.055 22.47 206.385C23.15 206.755 24.67 206.335 25.4 205.735C27.22 204.235 28.83 202.465 30.47 200.755C32.88 198.245 35.48 197.785 38.5 199.715C41.22 201.465 43.99 203.155 46.81 204.745C50.09 206.585 50.84 209.235 49.72 212.655C48.99 214.895 48.18 217.135 47.71 219.445C47.53 220.315 47.97 221.655 48.62 222.205C49.06 222.575 50.57 222.205 51.22 221.695C52.77 220.455 54.09 218.935 55.5 217.525C59.63 213.415 60.86 213.255 65.88 216.295C84.63 227.645 103.4 238.985 122.13 250.365C130.39 255.385 132.47 254.585 128.33 266.485C127.89 267.745 128.55 269.395 128.71 270.865C130.08 270.255 131.79 269.975 132.76 268.975C141.29 260.185 140.73 261.705 149.91 267.155C157.45 271.635 157.52 271.945 154.95 280.205C154.65 281.155 154.21 282.105 154.15 283.065C154.08 284.185 154.37 285.325 154.51 286.455C155.71 286.145 157.37 286.245 158.04 285.475C167.68 274.335 167.57 278.255 178.95 283.105C179.06 283.155 179.16 283.235 179.27 283.295C181.81 284.525 182.99 286.505 182.64 289.345C182.34 291.695 181.9 294.025 181.78 296.385C181.73 297.345 182.39 298.325 182.73 299.305C183.79 298.875 185.13 298.725 185.84 297.965C187.36 296.345 188.29 294.085 189.96 292.695C191.62 291.315 194.37 289.415 195.83 289.955C200.63 291.735 206.96 290.075 210.1 295.755C210.5 296.485 210.5 297.445 210.67 298.295C211.03 300.125 211.22 302.005 211.78 303.775C212.07 304.675 212.95 305.945 213.66 306.005C214.42 306.075 215.46 305.055 216.08 304.285C216.59 303.645 216.76 302.685 216.92 301.835C217.92 296.545 220.11 292.435 226.28 292.095C226.46 292.095 226.62 291.675 226.69 291.575C222.31 290.995 217.96 290.625 213.69 289.815C197.08 286.665 181.96 279.695 167.61 271.035C121.42 243.185 75.31 215.215 29.16 187.295C23.64 183.955 18.11 180.635 11.8 176.825H11.79ZM93.9 213.885L94.53 213.345C92.38 207.815 90.1 202.335 88.12 196.745C87.25 194.305 86.06 193.645 83.47 193.885C80.8 194.135 77.97 193.825 75.35 193.175C56.83 188.625 47.26 169.645 54.51 152.015C55.14 150.485 55.92 149.205 54.02 147.865C46.31 142.445 38.67 136.915 30.18 130.835C24.08 141.005 18.44 150.335 12.9 159.725C11.26 162.505 11.84 164.405 14.95 166.225C28.49 174.145 41.83 182.395 55.26 190.515C68.14 198.315 81.03 206.095 93.91 213.885H93.9ZM82.45 144.275C71.58 144.245 62.86 152.805 62.82 163.555C62.78 174.525 71.53 183.355 82.42 183.325C93.13 183.295 101.86 174.515 101.86 163.775C101.86 152.925 93.28 144.315 82.45 144.285V144.275ZM181.87 265.745L181.46 267.245C190.82 270.725 200.05 274.605 209.57 277.555C219.64 280.675 230 281.655 240.47 278.885C243.67 278.035 244.83 276.215 244.99 273.085C245.25 267.795 243.48 263.265 240.07 259.425C239.23 258.475 237.35 257.775 236.09 257.945C218 260.445 199.94 263.115 181.87 265.745Z" fill="#01568C"/>
<path d="M286.18 233.755C230.74 233.495 188.4 188.095 189.29 134.395C190.15 82.8647 234.24 39.4147 286.64 39.8847C342.29 40.3847 384.17 85.4547 383.32 139.495C382.51 190.875 338.32 234.125 286.18 233.765V233.755ZM243.38 94.9747C243.32 94.8647 243.61 95.8547 244.26 96.4247C249.58 101.135 254.94 105.805 260.39 110.365C261.04 110.905 262.38 110.975 263.3 110.765C273 108.575 282.69 106.335 292.35 103.975C293.45 103.705 294.83 102.825 295.26 101.865C298.31 95.0547 301.17 88.1547 304 81.2547C304.32 80.4747 304.4 79.2547 304 78.5847C298.81 69.9347 293.57 61.3247 288.17 52.8047C287.53 51.7947 285.9 50.8347 284.74 50.8347C271.96 50.9147 259.86 53.9647 248.44 59.6747C247.51 60.1347 246.42 61.3147 246.33 62.2547C245.28 72.7847 244.4 83.3347 243.38 94.9747ZM343.46 138.975C343.51 139.155 343.57 139.345 343.62 139.525C344.8 139.055 346.35 138.915 347.1 138.075C353.83 130.385 360.36 122.515 367.11 114.845C368.59 113.165 368.66 111.775 368.01 109.835C364.18 98.4647 358.32 88.3047 350.38 79.2947C348.6 77.2747 346.98 76.6647 344.26 77.3347C334.96 79.6247 325.57 81.5347 316.26 83.7447C315.31 83.9647 314.27 85.0847 313.85 86.0447C310.93 92.6447 308.07 99.2747 305.42 105.985C304.99 107.075 305.26 108.835 305.87 109.895C310.64 118.065 315.73 126.055 320.38 134.295C321.6 136.465 322.94 137.335 325.2 137.505C331.29 137.955 337.38 138.475 343.46 138.975ZM253.71 121.045C254 120.945 254.29 120.835 254.58 120.735C254.03 119.925 253.62 118.955 252.91 118.335C247.78 113.805 242.61 109.305 237.37 104.905C236.65 104.295 235.33 103.855 234.45 104.055C225.13 106.175 215.84 108.385 206.58 110.755C205.41 111.055 203.92 112.245 203.58 113.335C200.03 124.545 199.62 136.045 200.85 147.665C201.09 149.915 202.21 151.035 204.28 151.905C213.43 155.755 222.49 159.835 231.63 163.705C232.45 164.055 233.8 163.845 234.61 163.375C239.68 160.465 244.7 157.475 249.64 154.355C250.5 153.815 251.31 152.545 251.4 151.545C252.26 141.385 252.97 131.215 253.72 121.055L253.71 121.045ZM323.79 148.185C323.61 147.915 323.43 147.645 323.25 147.375C321.92 148.335 320.37 149.095 319.31 150.285C312.82 157.515 306.41 164.825 300.08 172.185C299.44 172.935 299.05 174.335 299.24 175.285C300.4 181.005 301.71 186.705 303.12 192.375C303.34 193.285 304.12 194.415 304.93 194.755C314.3 198.765 323.7 202.725 333.18 206.445C334.44 206.945 336.62 206.565 337.75 205.735C347.04 198.985 354.5 190.545 360.42 180.685C361.56 178.775 361.44 177.465 360.33 175.645C355.48 167.665 350.85 159.565 345.98 151.595C345.41 150.665 343.92 149.895 342.78 149.775C336.46 149.115 330.13 148.675 323.8 148.155L323.79 148.185ZM236.2 206.005C236.57 206.405 237.32 207.585 238.39 208.315C247.44 214.495 257.32 218.685 268.06 220.985C270.26 221.455 271.44 221.025 272.83 219.425C279.13 212.175 285.57 205.065 291.87 197.825C292.47 197.135 292.73 195.755 292.53 194.835C291.3 189.125 289.97 183.425 288.48 177.775C288.23 176.805 287.19 175.725 286.25 175.315C277.02 171.295 267.75 167.365 258.43 163.535C257.51 163.155 256.03 163.255 255.17 163.755C250.19 166.595 245.29 169.565 240.45 172.615C239.64 173.125 238.77 174.205 238.69 175.095C237.8 185.015 237.07 194.955 236.2 206.005ZM262.18 149.655C261.88 149.905 261.57 150.145 261.27 150.395C262.75 151.945 263.95 154.095 265.77 154.945C272.85 158.275 280.14 161.185 287.33 164.295C290.08 165.485 292.31 165.055 294.31 162.715C299.32 156.835 304.39 150.995 309.53 145.235C311.66 142.845 311.93 140.605 310.21 137.835C306.2 131.385 302.27 124.885 298.52 118.285C296.81 115.265 294.52 114.465 291.36 115.195C283.73 116.965 276.04 118.505 268.51 120.625C266.81 121.105 264.65 123.415 264.43 125.115C263.36 133.255 262.88 141.475 262.19 149.665L262.18 149.655ZM337.42 67.9647C329.01 60.2947 308.1 51.6547 300.85 52.8147C304.4 58.7647 307.77 64.7247 311.53 70.4147C312.35 71.6547 314.76 72.7747 316.19 72.5247C323.22 71.2847 330.17 69.5647 337.42 67.9547V67.9647ZM204.44 163.625C209.1 177.275 215.91 188.325 225.94 198.205C226.56 190.775 227.1 184.105 227.69 177.445C227.92 174.875 226.88 173.135 224.54 172.145C218.16 169.435 211.77 166.735 204.44 163.625ZM323.82 214.315C316.59 211.265 310.01 208.315 303.28 205.805C301.88 205.285 299.26 205.765 298.27 206.805C293.5 211.805 289.1 217.145 284.04 222.975C298.26 223.095 310.95 220.355 323.82 214.315ZM209 99.0647C216.62 97.2647 223.49 95.7747 230.26 93.9247C231.35 93.6247 232.62 91.8247 232.77 90.5947C233.65 83.2647 234.23 75.8947 234.98 67.8247C223.62 76.2547 215.4 86.2747 209 99.0547V99.0647ZM371.73 125.845C366.21 132.225 361.26 137.775 356.57 143.545C355.84 144.445 355.71 146.635 356.29 147.685C359.67 153.815 363.34 159.785 367.17 166.235C372.07 153.105 373.16 140.235 371.73 125.845Z" fill="#01568C"/>
</svg>
