<svg width="74" height="61" viewBox="0 0 74 61" fill="none" xmlns="http://www.w3.org/2000/svg">
<g clip-path="url(#clip0_601_2)">
<path d="M36.69 60.3C26.08 60.3 17.28 57.11 10.51 50.83C3.87001 44.74 0.23001 36.74 0.0100098 27.74L17.74 27.3C17.85 31.55 19.37 34.89 22.54 37.8C26 41.01 30.62 42.56 36.69 42.56C42.76 42.56 47.35 40.98 50.79 37.74C53.85 34.83 55.4 31.43 55.61 27.08L73.32 27.96C72.88 36.89 69.4 44.52 62.98 50.63C56.15 57.06 47.32 60.3 36.69 60.3Z" fill="#0066CC"/>
<path d="M8.87 17.74C13.7688 17.74 17.74 13.7688 17.74 8.87C17.74 3.97123 13.7688 0 8.87 0C3.97123 0 0 3.97123 0 8.87C0 13.7688 3.97123 17.74 8.87 17.74Z" fill="#0066CC"/>
<path d="M64.45 17.74C69.3488 17.74 73.32 13.7688 73.32 8.87C73.32 3.97123 69.3488 0 64.45 0C59.5512 0 55.58 3.97123 55.58 8.87C55.58 13.7688 59.5512 17.74 64.45 17.74Z" fill="#0066CC"/>
</g>
<defs>
<clipPath id="clip0_601_2">
<rect width="73.32" height="60.3" fill="white"/>
</clipPath>
</defs>
</svg>
