<svg width="242" height="68" viewBox="0 0 242 68" fill="none" xmlns="http://www.w3.org/2000/svg">
<g clip-path="url(#clip0_601_7)">
<path d="M36.69 67.78C26.08 67.78 17.28 64.59 10.51 58.31C3.87001 52.22 0.23001 44.22 0.0100098 35.22L17.74 34.78C17.85 39.03 19.37 42.37 22.54 45.28C26 48.49 30.62 50.04 36.69 50.04C42.76 50.04 47.35 48.46 50.79 45.22C53.85 42.31 55.4 38.91 55.61 34.56L73.32 35.44C72.88 44.37 69.4 52 62.98 58.11C56.15 64.54 47.32 67.78 36.69 67.78Z" fill="#0066CC"/>
<path d="M8.87 25.22C13.7688 25.22 17.74 21.2488 17.74 16.35C17.74 11.4512 13.7688 7.48001 8.87 7.48001C3.97123 7.48001 0 11.4512 0 16.35C0 21.2488 3.97123 25.22 8.87 25.22Z" fill="#0066CC"/>
<path d="M64.45 25.22C69.3488 25.22 73.32 21.2488 73.32 16.35C73.32 11.4512 69.3488 7.48001 64.45 7.48001C59.5512 7.48001 55.58 11.4512 55.58 16.35C55.58 21.2488 59.5512 25.22 64.45 25.22Z" fill="#0066CC"/>
<path d="M108.91 67.78V43.18L112.09 51.61L85.52 7.57999H100.4L120.7 41.29H112.19L132.57 7.57999H146.16L119.76 51.61L122.94 43.18V67.78H108.92H108.91Z" fill="#0066CC"/>
<path d="M168.94 67.78C163.66 67.78 159.05 66.75 155.09 64.68C151.13 62.62 148.07 59.79 145.89 56.21C143.71 52.63 142.62 48.54 142.62 43.96C142.62 39.38 143.67 35.27 145.76 31.66C147.85 28.05 150.78 25.22 154.53 23.19C158.28 21.16 162.51 20.14 167.21 20.14C171.91 20.14 175.83 21.12 179.47 23.06C183.11 25.01 185.99 27.76 188.11 31.32C190.23 34.88 191.29 39.15 191.29 44.13C191.29 44.65 191.26 45.23 191.2 45.89C191.14 46.55 191.08 47.17 191.03 47.74H153.45V39.91H183.98L178.73 42.23C178.79 39.82 178.33 37.73 177.35 35.95C176.38 34.17 175.03 32.78 173.31 31.78C171.59 30.78 169.58 30.28 167.29 30.28C165 30.28 162.98 30.78 161.23 31.78C159.48 32.78 158.12 34.19 157.15 35.99C156.17 37.8 155.69 39.93 155.69 42.4V44.46C155.69 47.04 156.26 49.28 157.41 51.17C158.56 53.06 160.13 54.51 162.14 55.51C164.15 56.51 166.56 57.02 169.36 57.02C171.77 57.02 173.9 56.65 175.77 55.9C177.63 55.15 179.34 54.04 180.89 52.55L188.03 60.29C185.91 62.7 183.24 64.55 180.03 65.84C176.82 67.13 173.12 67.78 168.94 67.78Z" fill="#0066CC"/>
<path d="M200.24 67.68V7.78H213.66V67.68H200.24Z" fill="#0066CC"/>
<path d="M232.84 14.96C230.32 14.96 228.28 14.24 226.73 12.81C225.18 11.38 224.41 9.6 224.41 7.48C224.41 5.36 225.18 3.58 226.73 2.15C228.28 0.72 230.31 0 232.84 0C235.37 0 237.33 0.67 238.9 2.02C240.48 3.37 241.27 5.1 241.27 7.22C241.27 9.46 240.5 11.3 238.95 12.77C237.4 14.24 235.37 14.96 232.84 14.96ZM226.13 67.68V21.41H239.55V67.68H226.13Z" fill="#0066CC"/>
</g>
<defs>
<clipPath id="clip0_601_7">
<rect width="241.26" height="67.78" fill="white"/>
</clipPath>
</defs>
</svg>
