<svg width="551" height="463" viewBox="0 0 551 463" fill="none" xmlns="http://www.w3.org/2000/svg">
<path d="M394.66 1.44C388.24 10.89 381.8 20.34 375.41 29.81C356.7 57.52 347.35 88.1 347.8 121.54C348.87 202.01 411.83 269.75 491.92 276.05C506.27 277.18 520.82 275.8 535.28 275.49C540.06 275.39 544.83 275.03 550.7 274.74C543.25 285.68 536.61 295.98 529.43 305.87C491.57 358.01 440.33 385.36 376.01 388.3C374.71 388.36 373.4 388.3 372.06 388.3C370.94 381.15 370.28 374.2 368.74 367.46C358.71 323.76 321.22 291.93 276.5 289.12C273.18 288.91 272.17 287.59 271.17 284.72C256.39 242.12 226.82 216.7 182.33 208.93C178.98 208.35 178.09 206.99 177.93 203.79C173.08 107.88 242.94 20.8 337.91 5.3C356.4 2.28 375.29 1.7 393.99 0C394.21 0.48 394.43 0.96 394.65 1.44H394.66Z" fill="black"/>
<path d="M248.26 319.8C252.58 319.35 256.54 319.02 260.49 318.51C302.48 313.13 339.34 343.67 342.3 386.31C345.08 426.44 312.31 461.91 271.05 462.15C199.98 462.57 128.91 462.45 57.84 462.18C25.51 462.05 -0.0399531 435.78 4.69023e-05 403.69C0.0400469 371.67 25.79 345.37 58 345.39C66.69 345.39 75.38 347.94 84.05 349.38C86.47 349.78 88.84 350.4 91.95 351.07C90.76 343.8 89.72 337.13 88.57 330.49C81.16 287.71 108.81 246.93 151.1 238.31C193.6 229.64 235.16 256.49 244.88 299.05C246.39 305.66 247.08 312.46 248.26 319.81V319.8Z" fill="black"/>
<path d="M398.33 96.54L403.86 107.73L416.2 109.53L407.27 118.23L409.38 130.53L398.33 124.73L387.29 130.53L389.4 118.23L380.46 109.53L392.81 107.73L398.33 96.54Z" fill="black"/>
<path d="M445.52 62.5298L449.86 71.3198L459.56 72.7198L452.54 79.5698L454.2 89.2298L445.52 84.6698L436.85 89.2298L438.51 79.5698L431.49 72.7198L441.19 71.3198L445.52 62.5298Z" fill="black"/>
<path d="M457.69 168.77L458.4 184.3L471.59 192.52L457.04 197.99L453.3 213.08L443.6 200.94L428.09 202.05L436.65 189.06L430.8 174.66L445.79 178.78L457.69 168.77Z" fill="black"/>
<path d="M101.97 181.04L109.21 195.7L125.38 198.05L113.68 209.46L116.44 225.57L101.97 217.96L87.4996 225.57L90.2696 209.46L78.5596 198.05L94.7396 195.7L101.97 181.04Z" fill="black"/>
</svg>
