<svg width="800" height="800" viewBox="0 0 800 800" fill="none" xmlns="http://www.w3.org/2000/svg">
<g clip-path="url(#clip0_2014_1217)">
<path d="M400 576.732C497.606 576.732 576.732 497.606 576.732 400C576.732 302.394 497.606 223.269 400 223.269C302.394 223.269 223.269 302.394 223.269 400C223.269 497.606 302.394 576.732 400 576.732Z" fill="black"/>
<path d="M400 605.633C286.617 605.633 194.371 513.387 194.371 400.004C194.371 286.62 286.617 194.375 400 194.375C513.384 194.375 605.63 286.62 605.63 400.004C605.63 513.387 513.384 605.633 400 605.633ZM400 252.166C318.485 252.166 252.167 318.485 252.167 400C252.167 481.515 318.485 547.834 400 547.834C481.515 547.834 547.834 481.515 547.834 400C547.834 318.485 481.515 252.166 400 252.166Z" fill="black"/>
<path d="M400 151.752C384.041 151.752 371.103 138.814 371.103 122.854V28.8978C371.103 12.9385 384.041 0 400 0C415.96 0 428.898 12.9385 428.898 28.8978V122.854C428.898 138.814 415.96 151.752 400 151.752Z" fill="black"/>
<path d="M400 800C384.041 800 371.103 787.062 371.103 771.102V677.146C371.103 661.187 384.041 648.248 400 648.248C415.96 648.248 428.898 661.187 428.898 677.146V771.102C428.898 787.066 415.96 800 400 800Z" fill="black"/>
<path d="M771.102 428.898H677.146C661.187 428.898 648.248 415.959 648.248 400C648.248 384.041 661.187 371.102 677.146 371.102H771.102C787.062 371.102 800 384.041 800 400C800 415.959 787.066 428.898 771.102 428.898Z" fill="black"/>
<path d="M122.854 428.898H28.8978C12.9385 428.898 0 415.959 0 400C0 384.041 12.9385 371.102 28.8978 371.102H122.854C138.814 371.102 151.752 384.041 151.752 400C151.752 415.959 138.814 428.898 122.854 428.898Z" fill="black"/>
<path d="M595.974 232.924C588.58 232.924 581.182 230.104 575.541 224.459C564.256 213.174 564.256 194.875 575.541 183.594L641.979 117.159C653.265 105.874 671.563 105.87 682.845 117.159C694.13 128.445 694.13 146.743 682.845 158.025L616.407 224.459C610.766 230.104 603.368 232.924 595.974 232.924Z" fill="black"/>
<path d="M137.588 691.309C130.194 691.309 122.796 688.489 117.156 682.844C105.87 671.559 105.87 653.261 117.156 641.979L183.594 575.541C194.879 564.255 213.177 564.255 224.459 575.541C235.745 586.826 235.745 605.125 224.459 616.406L158.021 682.844C152.38 688.489 144.986 691.309 137.588 691.309Z" fill="black"/>
<path d="M662.408 691.309C655.014 691.309 647.616 688.489 641.976 682.844L575.537 616.406C564.252 605.121 564.252 586.823 575.537 575.541C586.823 564.255 605.121 564.255 616.403 575.541L682.841 641.979C694.126 653.264 694.126 671.563 682.841 682.844C677.2 688.489 669.806 691.309 662.408 691.309Z" fill="black"/>
<path d="M204.026 232.924C196.632 232.924 189.234 230.104 183.594 224.459L117.156 158.025C105.87 146.739 105.87 128.445 117.156 117.159C128.441 105.874 146.739 105.87 158.021 117.159L224.459 183.594C235.745 194.879 235.745 213.174 224.459 224.459C218.818 230.104 211.424 232.924 204.026 232.924Z" fill="black"/>
</g>
<defs>
<clipPath id="clip0_2014_1217">
<rect width="800" height="800" fill="white"/>
</clipPath>
</defs>
</svg>
